# xmcd
# Track frame offsets:
# 150
# 15170
# 31916
# 50635
# 66188
# 82364
# 102282
# 119484
# 132427
# 156222
#
# Disc length: 2264 seconds
# Revision: 0
# Processed by: cddbd v1.5.2PL0 Copyright (c) Steve Scherf et al.
# Submitted via: VisiTrax 2.10.2.252 - For more info visit www.synapsa.com
#
DISCID=8508d60a
DTITLE=Gretchen Wilson - Here for the party
DYEAR=2004
DGENRE=Country
TTITLE0=Here for the party
TTITLE1=Redneck woman
TTITLE2=When I think about cheatin
TTITLE3=Homewrecker
TTITLE4=Holdin´you
TTITLE5=Chariot
TTITLE6=What happened
TTITLE7=When it rains I pour
TTITLE8=The bed
TTITLE9=Pocahontas proud
EXTD=
EXTT0=
EXTT1=
EXTT2=
EXTT3=
EXTT4=
EXTT5=
EXTT6=
EXTT7=
EXTT8=
EXTT9=
PLAYORDER=
